/vscmnt/brussel_pixiu_data/_data_brussel/112/vsc11236/PredSimResults/SUBJ11opt3D/weighted-LRposFixed/expIG/worker_01.mot
version=1
nRows=8
nColumns=50
inDegrees=yes
endheader
                time	         pelvis_tilt	         pelvis_list	     pelvis_rotation	           pelvis_tx	           pelvis_ty	           pelvis_tz	       hip_flexion_r	     hip_adduction_r	      hip_rotation_r	        knee_angle_r	       ankle_angle_r	         mtp_angle_r	       hip_flexion_l	     hip_adduction_l	      hip_rotation_l	        knee_angle_l	       ankle_angle_l	         mtp_angle_l	    lumbar_extension	      lumbar_bending	     lumbar_rotation	 ercspn_r/activation	 intobl_r/activation	 extobl_r/activation	    abd_r/activation	    add_r/activation	hamstrings_r/activation	bifemsh_r/activation	glut_max_r/activation	iliopsoas_r/activation	rect_fem_r/activation	  vasti_r/activation	gastroc_r/activation	 soleus_r/activation	tib_ant_r/activation	 ercspn_l/activation	 intobl_l/activation	 extobl_l/activation	    abd_l/activation	    add_l/activation	hamstrings_l/activation	bifemsh_l/activation	glut_max_l/activation	iliopsoas_l/activation	rect_fem_l/activation	  vasti_l/activation	gastroc_l/activation	 soleus_l/activation	tib_ant_l/activation	
          0.00000000	         -3.05046966	         -1.16412271	          5.45711049	          0.00000000	          0.94096220	         -0.00535765	         31.33767271	         -1.82990656	         -4.51738161	         -9.42038894	          1.90680739	          0.23141775	        -14.00174894	         -3.12890494	         -2.05353406	        -11.26087895	         12.67816382	         28.82046018	        -14.48678031	         -2.04166602	         -3.22567630	          0.03212422	          0.25426426	          0.06670305	          0.00999999	          0.18785013	          0.04503086	          0.16083923	          0.04247097	          0.10279895	          0.04161573	          0.01530752	          0.00999999	          0.00999999	          0.41235175	          0.01000000	          0.00999999	          0.01000000	          0.04103690	          0.01000000	          0.01653097	          0.27016042	          0.02398551	          0.15410553	          0.01000001	          0.01000000	          0.16417473	          0.32098772	          0.01496899	
          0.01340872	         -3.16770099	         -1.21371847	          5.61006065	          0.01845538	          0.93877380	         -0.00431586	         31.19909250	         -1.67985457	         -4.68093072	        -10.64765702	          1.35659826	          0.23976936	        -14.62706825	         -3.37863415	         -2.33375066	        -11.87486109	         11.87582603	         30.62076587	        -14.06671433	         -1.54291611	         -3.42341010	          0.02625646	          0.20782075	          0.05451917	          0.00999999	          0.21080678	          0.03766205	          0.13146059	          0.11490807	          0.08402185	          0.03401427	          0.01251147	          0.01379933	          0.01223529	          0.43697860	          0.02046805	          0.01000000	          0.01000000	          0.03354116	          0.05461322	          0.02173041	          0.22081336	          0.01960436	          0.16003450	          0.01000001	          0.01000000	          0.13439436	          0.30109199	          0.01223478	
          0.02681745	         -3.26236432	         -1.27423237	          5.74335274	          0.03735474	          0.93686114	         -0.00322409	         30.95849362	         -1.55519261	         -4.77706655	        -12.02119720	          0.88471543	          0.21108240	        -15.13488365	         -3.65143369	         -2.62720250	        -12.75903324	         10.93139090	         32.48866618	        -13.60841462	         -1.02423778	         -3.61646680	          0.02146063	          0.16986053	          0.04456079	          0.06790642	          0.22298076	          0.04489153	          0.10744821	          0.12588479	          0.06867455	          0.02780128	          0.01022614	          0.01127877	          0.01000041	          0.50580496	          0.01672940	          0.00999999	          0.01000000	          0.02741458	          0.04463766	          0.01776118	          0.18047995	          0.01602346	          0.17479698	          0.01000001	          0.01000000	          0.10984609	          0.27512367	          0.00999999	
          0.04022617	         -3.33756406	         -1.32261938	          5.84618593	          0.05635422	          0.93544114	         -0.00205102	         30.72849242	         -1.45274903	         -4.94684569	        -13.41255505	          0.21955922	          0.18290769	        -15.41397998	         -3.92428344	         -2.93096040	        -14.05703489	          9.81063517	         34.42904354	        -13.15423190	         -0.51772963	         -3.79608995	          0.03153863	          0.13883407	          0.03642138	          0.10437134	          0.27185406	          0.04127745	          0.08782189	          0.13530338	          0.05613056	          0.02272314	          0.02023994	          0.00999999	          0.00999999	          0.56079003	          0.04985948	          0.00999999	          0.01000000	          0.02240708	          0.04320959	          0.02082298	          0.14751377	          0.01309664	          0.14824274	          0.01000001	          0.01000000	          0.08978177	          0.24731904	          0.00999999	
          0.05363490	         -3.39238706	         -1.36002648	          5.92038812	          0.07526201	          0.93461943	         -0.00080485	         30.59272985	         -1.37267962	         -5.17050277	        -15.01431614	         -0.29110735	          0.13523793	        -15.39081938	         -4.20177544	         -3.23901244	        -15.87109516	          8.51011387	         36.39142504	        -12.72336238	         -0.02377962	         -3.95927880	          0.03651765	          0.11347485	          0.02976871	          0.13315854	          0.31716069	          0.04708206	          0.07178048	          0.13497787	          0.04587784	          0.01857257	          0.08430567	          0.01000000	          0.00999999	          0.59007596	          0.07502389	          0.00999999	          0.00999999	          0.01831424	          0.11336077	          0.01781367	          0.12056915	          0.01070443	          0.13556875	          0.01000000	          0.00999999	          0.07338237	          0.20562006	          0.00999999	
          0.06704362	         -3.42831433	         -1.38433451	          5.96469871	          0.09394993	          0.93450207	          0.00048832	         30.47510047	         -1.30341521	         -5.39909916	        -16.71464915	         -0.46197879	          0.08168676	        -14.99546177	         -4.48252188	         -3.55523469	        -18.29900080	          7.03437934	         38.23784891	        -12.32497106	          0.45537913	         -4.10110256	          0.02984741	          0.09274771	          0.02433120	          0.15166015	          0.34106412	          0.04794484	          0.05866917	          0.14896193	          0.03749786	          0.01518014	          0.13077609	          0.00999999	          0.00999999	          0.57977961	          0.10201969	          0.00999999	          0.01000000	          0.01496899	          0.17257574	          0.02240463	          0.09854621	          0.00999999	          0.11080599	          0.01000000	          0.00999999	          0.05997846	          0.16806182	          0.00999999	
          0.08045235	         -3.44732007	         -1.39684147	          5.97670697	          0.11226877	          0.93516329	          0.00179448	         30.30551559	         -1.22885163	         -5.58770088	        -18.39455673	         -0.19882278	          0.04058433	        -14.17290845	         -4.76934805	         -3.89574061	        -21.40281443	          5.39901728	         39.73280156	        -11.97076371	          0.92323650	         -4.21548397	          0.02439553	          0.07580656	          0.01988690	          0.16136606	          0.35486643	          0.05009998	          0.04795276	          0.14648756	          0.03064856	          0.01240736	          0.15683011	          0.00999999	          0.00999999	          0.52209842	          0.11506802	          0.01000000	          0.01000000	          0.01223477	          0.21169033	          0.03701750	          0.08469157	          0.00999999	          0.09056634	          0.00999999	          0.00999999	          0.04902289	          0.13736391	          0.00999999	
          0.09386107	         -3.45090070	         -1.38953126	          5.95507896	          0.13012649	          0.93658426	          0.00307595	         30.02196342	         -1.14434471	         -5.70026382	        -19.92476403	          0.44946226	          0.06195030	        -12.90105474	         -5.06321773	         -4.29320317	        -25.22479627	          3.80370257	         40.26176118	        -11.66709985	          1.37404604	         -4.29932957	          0.01993948	          0.06195985	          0.01625439	          0.16659313	          0.34589284	          0.05380345	          0.03919380	          0.13020350	          0.02505034	          0.01014106	          0.20620606	          0.01000000	          0.00999999	          0.43402781	          0.11434732	          0.01000000	          0.01000000	          0.00999999	          0.25418535	          0.04422697	          0.06922201	          0.00999999	          0.07402364	          0.00999999	          0.00999999	          0.04006844	          0.11227323	          0.00999999	
